<svg xmlns="http://www.w3.org/2000/svg" xmlns:xlink="http://www.w3.org/1999/xlink" version="1.1" x="0px" y="0px" viewBox="0 0 512 640" enable-background="new 0 0 512 512" xml:space="preserve"><path d="M502.891,261.023h-20.547V108.414c0-45.938-37.359-83.281-83.266-83.281  c-43.953,0-80.453,34.344-83.094,78.156l-0.266,4.406l-4.344,0.859c-31.797,6.391-54.891,34.609-54.891,67.109v14.812  c0,5.031,4.078,9.125,9.109,9.125h118.641c5.031,0,9.125-4.094,9.125-9.125v-14.812c0-32.312-22.938-60.5-54.516-67.016  l-5.016-1.047l0.453-5.062c3-33.188,31.438-59.172,64.797-59.172c35.859,0,65.031,29.172,65.031,65.047v152.609h-455  c-5.016,0-9.109,4.094-9.109,9.109s4.094,9.094,9.109,9.094h20.547v154.031c0,13.219,10.766,23.969,23.953,23.969H89v20.531  c0,5.031,4.078,9.109,9.094,9.109c5.031,0,9.125-4.078,9.125-9.109v-20.531h297.578v20.531c0,5.031,4.094,9.109,9.109,9.109  s9.109-4.078,9.109-9.109v-20.531h35.375c13.203,0,23.953-10.75,23.953-23.969V279.227h20.547c5.016,0,9.109-4.078,9.109-9.094  S507.906,261.023,502.891,261.023z M375.141,175.664v5.719H274.703v-5.719c0-27.703,22.531-50.219,50.203-50.219  C352.609,125.445,375.141,147.961,375.141,175.664z M464.109,438.977H47.891v-159.75h416.219V438.977z"/><text x="0" y="527" fill="#000000" font-size="5px" font-weight="bold" font-family="'Helvetica Neue', Helvetica, Arial-Unicode, Arial, Sans-serif">Created by lastspark</text><text x="0" y="532" fill="#000000" font-size="5px" font-weight="bold" font-family="'Helvetica Neue', Helvetica, Arial-Unicode, Arial, Sans-serif">from the Noun Project</text></svg>