<svg xmlns="http://www.w3.org/2000/svg" xmlns:xlink="http://www.w3.org/1999/xlink" version="1.1" x="0px" y="0px" viewBox="0 0 64 80" style="enable-background:new 0 0 64 64;" xml:space="preserve"><path d="M53,31.1V28c0-9.4-7.6-17-17-17h-8c-9.4,0-17,7.6-17,17v3.1c-4.5,0.5-8,4.3-8,8.9v12c0,0.6,0.4,1,1,1h56c0.6,0,1-0.4,1-1V40  C61,35.4,57.5,31.6,53,31.1z M13,28c0-8.3,6.7-15,15-15h8c8.3,0,15,6.7,15,15v3h-2.2c0.1-0.3,0.2-0.6,0.2-1v-3c0-1.7-1.3-3-3-3H36  c-1.7,0-3,1.3-3,3v3c0,0.4,0.1,0.7,0.2,1h-2.4c0.1-0.3,0.2-0.6,0.2-1v-3c0-1.7-1.3-3-3-3H18c-1.7,0-3,1.3-3,3v3c0,0.4,0.1,0.7,0.2,1  H13V28z M35,30v-3c0-0.6,0.4-1,1-1h10c0.6,0,1,0.4,1,1v3c0,0.6-0.4,1-1,1H36C35.4,31,35,30.6,35,30z M17,30v-3c0-0.6,0.4-1,1-1h10  c0.6,0,1,0.4,1,1v3c0,0.6-0.4,1-1,1H18C17.4,31,17,30.6,17,30z M59,51H5V40c0-3.9,3.1-7,7-7h6h10h8h10h6c3.9,0,7,3.1,7,7V51z"/><path d="M56,39H8c-0.6,0-1,0.4-1,1s0.4,1,1,1h48c0.6,0,1-0.4,1-1S56.6,39,56,39z"/></svg>