<svg xmlns="http://www.w3.org/2000/svg" xmlns:xlink="http://www.w3.org/1999/xlink" version="1.1" x="0px" y="0px" viewBox="0 0 100 125" enable-background="new 0 0 100 100" xml:space="preserve"><path d="M16.667,25.583v48.834h7.667v-9.832H28v1.332c0,2.373,1.788,4.316,4.084,4.607v3.893h8.166v-3.834h19.501v3.834h8.166  v-3.893C70.213,70.233,72,68.29,72,65.917v-1.332h3.667v9.832h7.666V25.583H16.667z M75.667,37.25H24.334v-3.667h51.333V37.25z   M24.334,39.25h51.333v4.333H24.334V39.25z M24.334,45.583h51.333v4.334H24.334V45.583z M24.334,51.917h51.333v4.334H24.334V51.917z   M70,65.917c0,1.47-1.196,2.666-2.667,2.666H32.668c-1.471,0-2.668-1.196-2.668-2.666v-1.332h3.126  c0.203,1.365,1.369,2.416,2.791,2.416s2.588-1.051,2.791-2.416h22.584c0.204,1.365,1.37,2.416,2.791,2.416  c1.422,0,2.588-1.051,2.792-2.416H70V65.917z M24.334,62.585v-4.334h51.333v4.334H24.334z M81.333,72.417h-3.666V31.583H22.334  v40.833h-3.667V27.583h62.666V72.417z"/></svg>