<svg xmlns="http://www.w3.org/2000/svg" width="21.413" height="21.413" viewBox="0 0 21.413 21.413"><g transform="translate(0 0)"><path d="M65.28,49.515h2.57a.268.268,0,0,0,.268-.268V47.053a1.553,1.553,0,0,0-3.105,0v2.194A.268.268,0,0,0,65.28,49.515Zm.268-.535v-1.2h2.035v1.2Zm1.017-2.944a1.018,1.018,0,0,1,1.017,1.017v.187H65.548v-.187A1.018,1.018,0,0,1,66.565,46.036Z" transform="translate(-50.288 -35.998)" fill="#b39c70"/><path d="M24.938,45.5a1.554,1.554,0,0,0-1.553,1.552v2.194a.268.268,0,0,0,.268.268h2.57a.268.268,0,0,0,.268-.268V47.053A1.554,1.554,0,0,0,24.938,45.5Zm0,.535a1.018,1.018,0,0,1,1.017,1.017v.187H23.921v-.187A1.018,1.018,0,0,1,24.938,46.036ZM23.921,48.98v-1.2h2.035v1.2Z" transform="translate(-19.803 -35.998)" fill="#b39c70"/><path d="M31.01,19.017a.268.268,0,0,0,.4-.231V16.578a.267.267,0,0,0-.129-.229l-10.43-6.311a.241.241,0,0,0-.087-.031.268.268,0,0,0-.2.031L16.323,12.6V10.289a.268.268,0,0,0-.268-.268H12.676a.268.268,0,0,0-.268.268v4.682l-2.28,1.378a.268.268,0,0,0-.129.229v2.208a.268.268,0,0,0,.4.231l1.571-.918V28.886h-.747a.268.268,0,0,0-.268.268v1.991a.268.268,0,0,0,.268.268h18.96a.268.268,0,0,0,.268-.268V29.153a.268.268,0,0,0-.268-.268h-.747V18.1ZM12.944,10.556h2.844v2.371l-2.844,1.72Zm-2.409,6.173L20.71,10.577l10.167,6.152V18.32L20.845,12.454a.268.268,0,0,0-.27,0L10.535,18.32Zm1.973,8.795h5.655v3.362H12.509Zm10.2,3.362H18.7V22a2.007,2.007,0,0,1,4.015,0Zm7.205,1.991H11.494V29.421H29.919Zm-6.67-1.991V25.524H28.9v3.362Zm5.655-3.9H23.249V22a2.543,2.543,0,0,0-5.085,0v2.991H12.509v-7.2L20.71,13,28.9,17.786Z" transform="translate(-10 -10)" fill="#b39c70"/></g></svg>