<svg xmlns="http://www.w3.org/2000/svg" xmlns:xlink="http://www.w3.org/1999/xlink" version="1.1" x="0px" y="0px" viewBox="0 0 100 125" style="enable-background:new 0 0 100 100;" xml:space="preserve"><path d="M88.4951172,43.6899414c0.3095703,0.1806641,0.6914062,0.1831055,1.0029297,0.0039062  C89.8085938,43.515625,90,43.1850586,90,42.8266602v-8.2495117c0-0.3500977-0.1826172-0.6743164-0.4824219-0.8554688  L50.5507812,10.1445312c-0.0996094-0.0605469-0.2099609-0.0991211-0.3242188-0.1176758  c-0.2519531-0.0605469-0.5214844-0.0185547-0.7470703,0.1171875L33.625,19.7294922v-8.6499023c0-0.5522461-0.4472656-1-1-1  H19.9990234c-0.5527344,0-1,0.4477539-1,1v17.4925537l-8.5166016,5.1490479C10.1826172,33.9023438,10,34.2270508,10,34.5771484  v8.2495117c0,0.3583984,0.1914062,0.6889648,0.5019531,0.8671875C10.65625,43.7822266,10.828125,43.8266602,11,43.8266602  c0.1748047,0,0.3486328-0.0454102,0.5048828-0.1367188l5.8681641-3.4283447v40.2984619h-2.7919922c-0.5527344,0-1,0.4477539-1,1V89  c0,0.5522461,0.4472656,1,1,1h70.8378906c0.5527344,0,1-0.4477539,1-1v-7.4399414c0-0.5522461-0.4472656-1-1-1h-2.7919922  V40.2589722L88.4951172,43.6899414z M20.9990234,12.0795898H31.625v8.8590698l-10.6259766,6.4243164V12.0795898z M12,35.1411133  l38.0146484-22.9833984L88,35.1411133v5.9423828L50.5195312,19.1699219c-0.3115234-0.1816406-0.6962891-0.1826172-1.0097656,0  L12,41.0844727V35.1411133z M19.3730469,68H40.5v12.5600586H19.3730469V68z M57.5,80.5600586h-15v-25.734375  c0-4.1352539,3.3642578-7.4995117,7.5-7.4995117s7.5,3.3642578,7.5,7.4995117V80.5600586z M84.4189453,88H15.5810547v-5.4399414  h68.8378906V88z M59.5,80.5600586V68h21.1269531v12.5600586H59.5z M80.6269531,66H59.5V54.8256836  c0-5.2382812-4.2617188-9.4995117-9.5-9.4995117s-9.5,4.2612305-9.5,9.4995117V66H19.3730469V39.0931396l30.6416016-17.9017334  l30.6123047,17.8981934V66z"/><path d="M66.0126953,60.4995117h9.6015625c0.5527344,0,1-0.4477539,1-1v-8.1987305  c0-3.1982422-2.6025391-5.800293-5.8007812-5.800293s-5.8007812,2.6020508-5.8007812,5.800293v8.1987305  C65.0126953,60.0517578,65.4599609,60.4995117,66.0126953,60.4995117z M67.0126953,58.4995117V54h7.6015625v4.4995117H67.0126953z   M70.8134766,47.5004883c2.0957031,0,3.8007812,1.7045898,3.8007812,3.800293V52h-7.6015625v-0.6992188  C67.0126953,49.2050781,68.7177734,47.5004883,70.8134766,47.5004883z"/><path d="M29.1865234,45.5004883c-3.1982422,0-5.8007812,2.6020508-5.8007812,5.800293v8.1987305c0,0.5522461,0.4472656,1,1,1  h9.6015625c0.5527344,0,1-0.4477539,1-1v-8.1987305C34.9873047,48.1025391,32.3847656,45.5004883,29.1865234,45.5004883z   M29.1865234,47.5004883c2.0957031,0,3.8007812,1.7045898,3.8007812,3.800293V52h-7.6015625v-0.6992188  C25.3857422,49.2050781,27.0908203,47.5004883,29.1865234,47.5004883z M25.3857422,58.4995117V54h7.6015625v4.4995117H25.3857422z"/></svg>