<svg xmlns="http://www.w3.org/2000/svg" width="19.361" height="19.361" viewBox="0 0 19.361 19.361"><path d="M9.68,1.721a29.682,29.682,0,0,1,3.872.108,4.989,4.989,0,0,1,1.829.323A3.777,3.777,0,0,1,17.21,3.98a4.989,4.989,0,0,1,.323,1.829c0,.968.108,1.291.108,3.872a29.682,29.682,0,0,1-.108,3.872,4.989,4.989,0,0,1-.323,1.829,3.777,3.777,0,0,1-1.829,1.829,4.989,4.989,0,0,1-1.829.323c-.968,0-1.291.108-3.872.108a29.682,29.682,0,0,1-3.872-.108A4.989,4.989,0,0,1,3.98,17.21a3.777,3.777,0,0,1-1.829-1.829,4.989,4.989,0,0,1-.323-1.829c0-.968-.108-1.291-.108-3.872a29.682,29.682,0,0,1,.108-3.872A4.989,4.989,0,0,1,2.151,3.98,3.863,3.863,0,0,1,2.9,2.9,1.819,1.819,0,0,1,3.98,2.151a4.989,4.989,0,0,1,1.829-.323A29.682,29.682,0,0,1,9.68,1.721M9.68,0A31.781,31.781,0,0,0,5.7.108a6.64,6.64,0,0,0-2.366.43A4.211,4.211,0,0,0,1.613,1.613,4.211,4.211,0,0,0,.538,3.334,4.9,4.9,0,0,0,.108,5.7,31.781,31.781,0,0,0,0,9.68a31.781,31.781,0,0,0,.108,3.98,6.64,6.64,0,0,0,.43,2.366,4.211,4.211,0,0,0,1.076,1.721,4.211,4.211,0,0,0,1.721,1.076,6.64,6.64,0,0,0,2.366.43,31.781,31.781,0,0,0,3.98.108,31.781,31.781,0,0,0,3.98-.108,6.64,6.64,0,0,0,2.366-.43,4.513,4.513,0,0,0,2.8-2.8,6.64,6.64,0,0,0,.43-2.366c0-1.076.108-1.4.108-3.98a31.781,31.781,0,0,0-.108-3.98,6.64,6.64,0,0,0-.43-2.366,4.211,4.211,0,0,0-1.076-1.721A4.211,4.211,0,0,0,16.026.538,6.64,6.64,0,0,0,13.66.108,31.781,31.781,0,0,0,9.68,0m0,4.733A4.868,4.868,0,0,0,4.733,9.68,4.948,4.948,0,1,0,9.68,4.733m0,8.175A3.169,3.169,0,0,1,6.454,9.68,3.169,3.169,0,0,1,9.68,6.454,3.169,3.169,0,0,1,12.907,9.68,3.169,3.169,0,0,1,9.68,12.907m5.163-9.573a1.183,1.183,0,1,0,1.183,1.183,1.194,1.194,0,0,0-1.183-1.183" transform="translate(0 0)" fill="#f8f8f8" fill-rule="evenodd"/></svg>