<svg xmlns:dc="http://purl.org/dc/elements/1.1/" xmlns:cc="http://creativecommons.org/ns#" xmlns:rdf="http://www.w3.org/1999/02/22-rdf-syntax-ns#" xmlns:svg="http://www.w3.org/2000/svg" xmlns="http://www.w3.org/2000/svg" xmlns:sodipodi="http://sodipodi.sourceforge.net/DTD/sodipodi-0.dtd" xmlns:inkscape="http://www.inkscape.org/namespaces/inkscape" viewBox="0 0 16.933333 21.1666675" version="1.1" x="0px" y="0px"><g transform="translate(0,-280.06665)"><path style="color:#000000;font-style:normal;font-variant:normal;font-weight:normal;font-stretch:normal;font-size:medium;line-height:normal;font-family:sans-serif;font-variant-ligatures:normal;font-variant-position:normal;font-variant-caps:normal;font-variant-numeric:normal;font-variant-alternates:normal;font-feature-settings:normal;text-indent:0;text-align:start;text-decoration:none;text-decoration-line:none;text-decoration-style:solid;text-decoration-color:#000000;letter-spacing:normal;word-spacing:normal;text-transform:none;writing-mode:lr-tb;direction:ltr;text-orientation:mixed;dominant-baseline:auto;baseline-shift:baseline;text-anchor:start;white-space:normal;shape-padding:0;clip-rule:nonzero;display:inline;overflow:visible;visibility:visible;opacity:1;isolation:auto;mix-blend-mode:normal;color-interpolation:sRGB;color-interpolation-filters:linearRGB;solid-color:#000000;solid-opacity:1;vector-effect:none;fill:#000000;fill-opacity:1;fill-rule:nonzero;stroke:none;stroke-width:0.5291667;stroke-linecap:butt;stroke-linejoin:bevel;stroke-miterlimit:4;stroke-dasharray:none;stroke-dashoffset:0;stroke-opacity:1;color-rendering:auto;image-rendering:auto;shape-rendering:auto;text-rendering:auto;enable-background:accumulate" d="m 8.4667969,281.125 c -2.919376,0 -5.2910194,2.37164 -5.2910157,5.29102 6e-7,0.77394 0.3299381,1.72427 0.8085938,2.75 0.4786557,1.02572 1.1120835,2.11962 1.7441406,3.125 1.2641142,2.01074 2.5273438,3.66992 2.5273438,3.66992 h 0.421875 c 0,0 1.2632293,-1.65918 2.5273436,-3.66992 0.632057,-1.00538 1.263532,-2.09928 1.742188,-3.125 0.478655,-1.02573 0.810546,-1.97606 0.810546,-2.75 5e-6,-2.91938 -2.371639,-5.29102 -5.2910151,-5.29102 z m 0,0.5293 c 2.6333921,0 4.7617221,2.12833 4.7617191,4.76172 -1e-6,0.61425 -0.295843,1.53124 -0.759766,2.52539 -0.463923,0.99415 -1.088177,2.07466 -1.712891,3.06836 -1.1439392,1.81959 -2.1038745,3.07849 -2.2890621,3.32421 -0.1851876,-0.24572 -1.1451232,-1.50462 -2.2890625,-3.32421 -0.6247133,-0.9937 -1.2489682,-2.07421 -1.7128906,-3.06836 -0.4639225,-0.99415 -0.7597653,-1.91114 -0.7597657,-2.52539 -3.4e-6,-2.63339 2.1283265,-4.76172 4.7617188,-4.76172 z m 0,2.11718 c -1.4581195,0 -2.6464844,1.18642 -2.6464844,2.64454 0,1.45812 1.1883649,2.64648 2.6464844,2.64648 1.4581194,0 2.6464841,-1.18836 2.6464841,-2.64648 0,-1.45812 -1.1883647,-2.64454 -2.6464841,-2.64454 z m 0,0.5293 c 1.1721365,0 2.1171871,0.9431 2.1171871,2.11524 0,1.17213 -0.9450506,2.11718 -2.1171871,2.11718 -1.1721366,0 -2.1171875,-0.94505 -2.1171875,-2.11718 0,-1.17214 0.9450509,-2.11524 2.1171875,-2.11524 z"/></svg>