<svg xmlns="http://www.w3.org/2000/svg" width="13.51" height="18.941" viewBox="0 0 13.51 18.941"><path d="M9.931,281.125a6.76,6.76,0,0,0-6.755,6.755,9.015,9.015,0,0,0,1.032,3.511,37.909,37.909,0,0,0,2.227,3.99c1.614,2.567,3.227,4.685,3.227,4.685H10.2s1.613-2.118,3.227-4.685a37.882,37.882,0,0,0,2.224-3.99,9.024,9.024,0,0,0,1.035-3.511A6.76,6.76,0,0,0,9.931,281.125Zm0,.676a6.073,6.073,0,0,1,6.079,6.079,8.747,8.747,0,0,1-.97,3.224,37.4,37.4,0,0,1-2.187,3.917c-1.46,2.323-2.686,3.93-2.922,4.244-.236-.314-1.462-1.921-2.922-4.244A37.4,37.4,0,0,1,4.822,291.1a8.747,8.747,0,0,1-.97-3.224A6.073,6.073,0,0,1,9.931,281.8Zm0,2.7a3.378,3.378,0,1,0,3.379,3.376A3.382,3.382,0,0,0,9.931,284.5Zm0,.676a2.7,2.7,0,1,1-2.7,2.7A2.7,2.7,0,0,1,9.931,285.18Z" transform="translate(-3.176 -281.125)" fill="#b39c70"/></svg>