<svg xmlns="http://www.w3.org/2000/svg" width="10.582" height="14.836" viewBox="0 0 10.582 14.836"><defs><style>.a{fill:#a18a5f;}</style></defs><path class="a" d="M8.467,281.125a5.3,5.3,0,0,0-5.291,5.291,7.061,7.061,0,0,0,.809,2.75,29.7,29.7,0,0,0,1.744,3.125c1.264,2.011,2.527,3.67,2.527,3.67h.422s1.263-1.659,2.527-3.67a29.675,29.675,0,0,0,1.742-3.125,7.068,7.068,0,0,0,.811-2.75A5.3,5.3,0,0,0,8.467,281.125Zm0,.529a4.757,4.757,0,0,1,4.762,4.762,6.851,6.851,0,0,1-.76,2.525,29.294,29.294,0,0,1-1.713,3.068c-1.144,1.82-2.1,3.078-2.289,3.324-.185-.246-1.145-1.5-2.289-3.324a29.294,29.294,0,0,1-1.713-3.068,6.851,6.851,0,0,1-.76-2.525A4.757,4.757,0,0,1,8.467,281.654Zm0,2.117a2.646,2.646,0,1,0,2.646,2.645A2.649,2.649,0,0,0,8.467,283.771Zm0,.529a2.116,2.116,0,1,1-2.117,2.115A2.112,2.112,0,0,1,8.467,284.3Z" transform="translate(-3.176 -281.125)"/></svg>