<svg xmlns="http://www.w3.org/2000/svg" width="134" height="49.497" viewBox="0 0 134 49.497"><g transform="translate(-525 -638.399)"><g transform="translate(525 663.148) rotate(-45)" fill="none"><path d="M0,0H35V35H0Z" stroke="none"/><path d="M 2 2 L 2 33 L 33 33 L 33 2 L 2 2 M 0 0 L 35 0 L 35 35 L 0 35 L 0 0 Z" stroke="none" fill="#f8f8f8"/></g><g transform="translate(541.453 655.089)"><rect width="17" height="17" transform="translate(-0.089 -0.089)" fill="none"/><g transform="translate(1.409 2.114)"><path d="M13.979,7.439V3.7H11.865V5.537L9.046,3,2,9.342H4.114v5.637H7.637V10.751h2.819v4.228h3.523V9.342h2.114Zm-6.342.493a1.409,1.409,0,1,1,2.819,0Z" transform="translate(-2 -3)" fill="#f8f8f8"/></g></g></g><text transform="translate(66 30.601)" fill="#fff" font-size="16" font-family="SourceSansPro-Regular, Source Sans Pro" letter-spacing="0.032em"><tspan x="0" y="0">IC MOVES</tspan></text></svg>