<svg xmlns="http://www.w3.org/2000/svg" xmlns:xlink="http://www.w3.org/1999/xlink" version="1.1" x="0px" y="0px" viewBox="0 0 512 640" enable-background="new 0 0 512 512" xml:space="preserve"><g><path d="M294.7,119.5c-40.6,5.8-71.8,33.5-85.3,69.9l-30.6,81.2c-3.5,9.2,3.3,19.1,13.2,19.1h234.4c9.9,0,16.7-9.9,13.2-19.1   l-31.6-83.9c-13.8-36.6-47-62.3-85.1-67.4C318.5,53.9,263.9,2,197.4,2c-69.5,0-126,56.5-126,126v367.9c0,7.8,6.3,14.1,14.1,14.1   c7.8,0,14.1-6.3,14.1-14.1V128c0-53.9,43.9-97.8,97.8-97.8C248.4,30.2,290.4,69.6,294.7,119.5z M381.7,196.7l24.4,64.9H212.5   l24.4-64.9c11.3-30,40.4-50.1,72.4-50.1C341.3,146.6,370.4,166.7,381.7,196.7z"/><path d="M228.5,315.1L228.5,315.1c-7.6-1.7-15.1,3.1-16.8,10.7l-1.4,6.3c-1.7,7.6,3.1,15.1,10.7,16.8h0c7.6,1.7,15.1-3.1,16.8-10.7   l1.4-6.3C240.9,324.3,236.1,316.8,228.5,315.1z"/><path d="M282.4,314.8L282.4,314.8c-7.8-0.6-14.5,5.3-15.1,13l-0.5,6.3c-0.6,7.8,5.3,14.5,13,15.1l0,0c7.8,0.6,14.5-5.3,15.1-13   l0.5-6.3C296,322.1,290.1,315.4,282.4,314.8z"/><path d="M338.7,349.3L338.7,349.3c7.8-0.6,13.6-7.3,13-15.1l-0.5-6.3c-0.6-7.8-7.3-13.6-15.1-13h0c-7.8,0.6-13.6,7.3-13,15.1   l0.5,6.3C324.2,344,331,349.8,338.7,349.3z"/><path d="M397.6,349L397.6,349c7.6-1.7,12.4-9.2,10.7-16.8l-1.4-6.3c-1.7-7.6-9.2-12.4-16.8-10.7l0,0c-7.6,1.7-12.4,9.2-10.7,16.8   l1.4,6.3C382.5,345.9,390,350.7,397.6,349z"/><path d="M215.5,373.4L215.5,373.4c-7.6-1.7-15.1,3.1-16.8,10.7l-1.9,8.4c-1.7,7.6,3.1,15.1,10.7,16.8h0c7.6,1.7,15.1-3.1,16.8-10.7   l1.9-8.4C227.9,382.6,223.1,375.1,215.5,373.4z"/><path d="M278,373.1L278,373.1c-7.8-0.6-14.5,5.3-15.1,13l-0.6,8.5c-0.6,7.8,5.3,14.5,13,15.1l0,0c7.8,0.6,14.5-5.3,15.1-13l0.6-8.5   C291.7,380.4,285.8,373.7,278,373.1z"/><path d="M343.2,409.7c7.8-0.6,13.6-7.3,13-15.1l-0.6-8.5c-0.6-7.8-7.3-13.6-15.1-13l0,0c-7.8,0.6-13.6,7.3-13,15.1l0.6,8.5   C328.7,404.4,335.5,410.3,343.2,409.7L343.2,409.7z"/><path d="M411.1,409.4c7.6-1.7,12.4-9.2,10.7-16.8l-1.9-8.4c-1.7-7.6-9.2-12.4-16.8-10.7h0c-7.6,1.7-12.4,9.2-10.7,16.8l1.9,8.4   C395.9,406.3,403.5,411.1,411.1,409.4L411.1,409.4z"/><path d="M197.8,438.9L197.8,438.9c-7.6-1.7-15.1,3.1-16.8,10.7l-2.6,11.9c-1.7,7.6,3.1,15.1,10.7,16.8h0   c7.6,1.7,15.1-3.1,16.8-10.7l2.6-11.9C210.2,448.2,205.4,440.6,197.8,438.9z"/><path d="M272.1,438.6L272.1,438.6c-7.8-0.6-14.5,5.3-15.1,13l-0.9,11.9c-0.6,7.8,5.3,14.5,13,15.1l0,0c7.8,0.6,14.5-5.3,15.1-13   l0.9-11.9C285.7,446,279.9,439.2,272.1,438.6z"/><path d="M346.4,438.6c-7.8,0.6-13.6,7.3-13,15.1l0.9,11.9c0.6,7.8,7.3,13.6,15.1,13c7.8-0.6,13.6-7.3,13-15.1l-0.9-11.9   C361,443.9,354.2,438,346.4,438.6z"/><path d="M440.3,461.5l-2.6-11.9c-1.7-7.6-9.2-12.4-16.8-10.7h0c-7.6,1.7-12.4,9.2-10.7,16.8l2.6,11.9c1.7,7.6,9.2,12.4,16.8,10.7h0   C437.2,476.6,442,469.1,440.3,461.5z"/></g></svg>