<svg xmlns="http://www.w3.org/2000/svg" width="19.361" height="19.361" viewBox="0 0 19.361 19.361"><g transform="translate(0 0)"><rect width="19.361" height="19.361" transform="translate(0)" fill="none"/><path d="M44.131,17.7A11.193,11.193,0,0,0,55.425,6.41V5.872a8.743,8.743,0,0,0,1.936-2.044,8.929,8.929,0,0,1-2.259.645,4.185,4.185,0,0,0,1.721-2.151,9.866,9.866,0,0,1-2.474.968A3.841,3.841,0,0,0,51.445,2a4.041,4.041,0,0,0-3.98,3.98,2.1,2.1,0,0,0,.108.86A11.12,11.12,0,0,1,39.4,2.645a4.119,4.119,0,0,0-.538,2.044,4.273,4.273,0,0,0,1.721,3.334,3.626,3.626,0,0,1-1.829-.538h0a3.931,3.931,0,0,0,3.227,3.872,3.316,3.316,0,0,1-1.076.108,1.83,1.83,0,0,1-.753-.108,4.075,4.075,0,0,0,3.765,2.8,8.121,8.121,0,0,1-4.948,1.721A2.978,2.978,0,0,1,38,15.768,10.152,10.152,0,0,0,44.131,17.7" transform="translate(-38 0.419)" fill="#f8f8f8" fill-rule="evenodd"/></g></svg>